<svg width="618" height="800" viewBox="0 0 618 800" fill="none" xmlns="http://www.w3.org/2000/svg">
<g clip-path="url(#clip0_3_30)">
<path d="M306.577 637.84C350.746 637.84 388.091 675.789 366.768 714.482C364.236 719.078 361.468 723.567 358.473 727.931C340.165 754.6 314.142 775.384 283.697 787.658C253.253 799.931 219.75 803.142 187.43 796.886C155.109 790.629 125.421 775.184 102.119 752.506C78.8172 729.827 62.9484 700.933 56.5194 669.475C50.0905 638.018 53.3901 605.413 66.0009 575.782C78.6118 546.151 99.9677 520.826 127.368 503.006C132.377 499.749 137.548 496.769 142.854 494.073C182.239 474.071 219.935 511.495 219.935 555.676V557.84C219.935 602.022 255.743 637.84 299.912 637.84H306.577Z" fill="black"/>
<path d="M446.534 339.458C446.534 295.275 484.23 257.853 523.615 277.854C528.921 280.549 534.092 283.529 539.101 286.787C566.501 304.605 587.858 329.933 600.469 359.564C613.08 389.194 616.379 421.8 609.95 453.256C603.521 484.713 587.653 513.607 564.35 536.285C541.048 558.965 511.36 574.409 479.039 580.667C446.718 586.924 413.217 583.713 382.771 571.438C352.325 559.165 326.304 538.38 307.997 511.713C304.999 507.349 302.233 502.86 299.699 498.264C278.378 459.569 315.722 421.62 359.892 421.62H366.558C410.726 421.62 446.534 385.804 446.534 341.62V339.458Z" fill="black"/>
<path d="M222.158 352.433C222.158 396.615 185.281 433.751 143.811 418.542C128.031 412.753 112.9 405.206 98.7332 395.993C62.1998 372.235 33.7254 338.467 16.9108 298.958C0.0962646 259.451 -4.30318 215.976 4.26877 174.035C12.8408 132.093 33.9991 93.5668 65.0684 63.3283C96.1376 33.0899 135.722 12.4974 178.816 4.15464C221.911 -4.18813 266.579 0.0936887 307.173 16.4586C347.766 32.8236 382.463 60.5365 406.874 96.093C415.959 109.328 423.469 123.428 429.317 138.121C445.654 179.171 408.507 216.216 364.338 216.216H302.134C257.964 216.216 222.158 252.033 222.158 296.216V352.433Z" fill="black"/>
</g>
<defs>
<clipPath id="clip0_3_30">
<rect width="618" height="800" fill="white"/>
</clipPath>
</defs>
</svg>
